<svg width="315" height="392" fill="none" xmlns="http://www.w3.org/2000/svg"><rect width="315" height="117" rx="20" fill="#FFCFA5"/><path d="M166.073 387.77c-4.735 5.491-13.453 5.491-18.188 0-7.259-8.434-18.19-13.77-30.013-13.77s-22.427 5.166-29.686 13.374a12.153 12.153 0 01-18.273 0A39.621 39.621 0 0040.227 374c-11.767 0-22.343 5.138-29.587 13.275-2.792 3.137-6.815 4.576-10.64 4.184V90.999h315v300.266c-4.097.84-8.54-.457-11.583-3.891C296.173 379.18 285.54 374 273.73 374c-11.809 0-22.427 5.166-29.671 13.374a12.154 12.154 0 01-18.274 0C218.541 379.18 208.107 374 196.1 374c-12.008 0-22.768 5.336-30.027 13.77z" fill="#FFCFA5"/></svg>
