<?xml version="1.0" encoding="UTF-8"?>
<svg id="Calque_2" data-name="Calque 2" xmlns="http://www.w3.org/2000/svg" xmlns:xlink="http://www.w3.org/1999/xlink" viewBox="0 0 243.86 204.3">
  <defs>
    <style>
      .cls-1 {
        fill: #c22d2b;
      }

      .cls-2 {
        fill: #fff;
      }

      .cls-3 {
        stroke: #581110;
      }

      .cls-3, .cls-4 {
        fill: none;
      }

      .cls-3, .cls-4, .cls-5 {
        stroke-miterlimit: 10;
      }

      .cls-6 {
        fill: #f0e4e9;
      }

      .cls-4 {
        stroke: #671412;
        stroke-width: 3px;
      }

      .cls-5 {
        fill: url(#Dégradé_sans_nom_131);
        stroke: #fbcfa6;
        stroke-width: 5px;
      }

      .cls-7 {
        fill: #c8c8c8;
      }

      .cls-8 {
        fill: #fdeb11;
      }
    </style>
    <radialGradient id="Dégradé_sans_nom_131" data-name="Dégradé sans nom 131" cx="108.15" cy="102.15" fx="108.15" fy="102.15" r="183.8" gradientUnits="userSpaceOnUse">
      <stop offset=".3" stop-color="#e33d3d"/>
      <stop offset=".94" stop-color="#bc201f"/>
    </radialGradient>
  </defs>
  <g id="Calque_10" data-name="Calque 10">
    <g>
      <path class="cls-5" d="M213.79,137.29c0,17.82-14.44,32.26-32.25,32.26-3.09,0-6.08-.44-8.92-1.25.02.41.03.83.03,1.25,0,17.81-14.44,32.25-32.25,32.25s-32.25-14.44-32.25-32.25c0,17.81-14.44,32.25-32.25,32.25s-32.26-14.44-32.26-32.25c0-.42.01-.83.02-1.24-2.83.81-5.82,1.24-8.9,1.24-17.82,0-32.26-14.44-32.26-32.26,0-15.15,10.45-27.86,24.54-31.31-1.58-6.39-2.41-13.08-2.41-19.96C24.63,39.9,62.02,2.5,108.15,2.5s83.52,37.4,83.52,83.52c0,6.88-.83,13.57-2.41,19.96,14.08,3.45,24.53,16.16,24.53,31.31Z"/>
      <path class="cls-6" d="M75.03,113.28c-13.35,1.08-25.17-11.5-26.39-28.09-.02-.35-.05-.71-.06-1.06,3.51-3.66,9.27-8.03,17.61-9.55-.8,2.47-1.24,5.24-1.24,8.15,0,10.85,6.17,19.66,13.78,19.66s13.77-8.8,13.77-19.66c0-1.44-.11-2.85-.32-4.2,1.54.66,3.11,1.4,4.73,2.23.03.17.05.35.06.52,1.22,16.59-8.61,30.92-21.95,31.99Z"/>
      <path class="cls-1" d="M92.51,82.72c0,10.85-6.17,19.66-13.77,19.66s-13.78-8.8-13.78-19.66c0-2.91.44-5.68,1.24-8.15,6.85-1.24,15.45-.58,25.99,3.96.21,1.35.32,2.76.32,4.2Z"/>
      <path class="cls-6" d="M141.32,113.55c13.35,1.08,25.17-11.5,26.39-28.09.02-.35.05-.71.06-1.06-3.51-3.66-9.27-8.03-17.61-9.55.8,2.47,1.24,5.24,1.24,8.15,0,10.85-6.17,19.66-13.78,19.66s-13.77-8.8-13.77-19.66c0-1.44.11-2.85.32-4.2-1.54.66-3.11,1.4-4.73,2.23-.03.17-.05.35-.06.52-1.22,16.59,8.61,30.92,21.95,31.99Z"/>
      <path class="cls-1" d="M123.84,83c0,10.85,6.17,19.66,13.77,19.66s13.78-8.8,13.78-19.66c0-2.91-.44-5.68-1.24-8.15-6.85-1.24-15.45-.58-25.99,3.96-.21,1.35-.32,2.76-.32,4.2Z"/>
      <ellipse class="cls-2" cx="66.95" cy="82.78" rx="4.26" ry="1.53"/>
      <ellipse class="cls-2" cx="149.48" cy="82.78" rx="4.26" ry="1.53"/>
      <path class="cls-1" d="M94.98,71.52c-4.6-8.5-12.84-14.15-22.23-14.15s-17.42,5.51-22.06,13.83c3.78-10.43,12.25-17.7,22.09-17.7s18.49,7.42,22.2,18.02Z"/>
      <path class="cls-1" d="M121.37,71.52c4.6-8.5,12.84-14.15,22.23-14.15s17.42,5.51,22.06,13.83c-3.78-10.43-12.25-17.7-22.09-17.7s-18.49,7.42-22.2,18.02Z"/>
      <path class="cls-1" d="M119.93,112.23s.01-.05,0-.08c-.1-.77-.55-1.5-1.28-1.92-.7-.4-1.52-.44-2.22-.17-.13.07-.26.13-.4.19-2.14.96-4.71,1.51-7.47,1.51-3.12,0-5.98-.71-8.27-1.9-.02-.02-.04-.03-.06-.04-.11-.06-.21-.11-.32-.16-1.18-.48-2.57-.02-3.22,1.11-.22.37-.33.77-.34,1.17,0,.21.01.42.04.63.53,4.63,5.58,8.26,11.76,8.26,5.72,0,10.48-3.12,11.57-7.27.11-.44.18-.88.21-1.33Z"/>
      <g>
        <path class="cls-7" d="M106.36,111.63c-2.23-.26-4.27-.88-5.98-1.77-.02-.02-.04-.03-.06-.04-.11-.06-.21-.11-.32-.16-.47-.19-.97-.23-1.45-.14,1.04,2.8,4.06,4.94,7.81,5.49v-3.38Z"/>
        <path class="cls-7" d="M116.51,110.06c-.13.07-.26.13-.4.19-1.8.81-3.92,1.3-6.18,1.45v3.34c3.65-.48,6.63-2.48,7.81-5.12-.42-.05-.85,0-1.23.14Z"/>
      </g>
      <circle class="cls-4" cx="71.21" cy="92.76" r="30.25"/>
      <circle class="cls-4" cx="145.21" cy="92.76" r="30.25"/>
      <path class="cls-4" d="M101.46,94.23s6.86-6.41,13.49,0"/>
      <rect class="cls-8" x="203.83" y="7.06" width="19.91" height="135.57" transform="translate(32.82 -61.38) rotate(17.68)"/>
      <line class="cls-3" x1="222.25" y1="15.51" x2="231.9" y2="18.58"/>
      <line class="cls-3" x1="219.07" y1="25.48" x2="228.72" y2="28.55"/>
      <line class="cls-3" x1="221.48" y1="17.92" x2="227.62" y2="19.88"/>
      <line class="cls-3" x1="220.65" y1="20.52" x2="226.79" y2="22.48"/>
      <line class="cls-3" x1="219.86" y1="23" x2="226" y2="24.96"/>
      <line class="cls-3" x1="215.83" y1="35.63" x2="225.48" y2="38.71"/>
      <line class="cls-3" x1="218.23" y1="28.08" x2="224.37" y2="30.03"/>
      <line class="cls-3" x1="217.4" y1="30.68" x2="223.54" y2="32.63"/>
      <line class="cls-3" x1="216.61" y1="33.16" x2="222.75" y2="35.11"/>
      <line class="cls-3" x1="212.58" y1="45.79" x2="222.23" y2="48.87"/>
      <line class="cls-3" x1="214.99" y1="38.24" x2="221.13" y2="40.19"/>
      <line class="cls-3" x1="214.16" y1="40.84" x2="220.3" y2="42.79"/>
      <line class="cls-3" x1="213.37" y1="43.31" x2="219.51" y2="45.27"/>
      <line class="cls-3" x1="209.33" y1="55.95" x2="218.98" y2="59.02"/>
      <line class="cls-3" x1="211.74" y1="48.39" x2="217.88" y2="50.35"/>
      <line class="cls-3" x1="210.91" y1="50.99" x2="217.05" y2="52.95"/>
      <line class="cls-3" x1="210.12" y1="53.47" x2="216.26" y2="55.43"/>
      <line class="cls-3" x1="206.08" y1="66.11" x2="215.74" y2="69.18"/>
      <line class="cls-3" x1="208.49" y1="58.55" x2="214.63" y2="60.51"/>
      <line class="cls-3" x1="207.66" y1="61.15" x2="213.8" y2="63.11"/>
      <line class="cls-3" x1="206.87" y1="63.63" x2="213.01" y2="65.59"/>
      <line class="cls-3" x1="202.84" y1="76.26" x2="212.49" y2="79.34"/>
      <line class="cls-3" x1="205.25" y1="68.71" x2="211.38" y2="70.66"/>
      <line class="cls-3" x1="204.42" y1="71.31" x2="210.56" y2="73.27"/>
      <line class="cls-3" x1="203.63" y1="73.79" x2="209.77" y2="75.74"/>
      <line class="cls-3" x1="199.59" y1="86.42" x2="209.24" y2="89.5"/>
      <line class="cls-3" x1="202" y1="78.87" x2="208.14" y2="80.82"/>
      <line class="cls-3" x1="201.17" y1="81.47" x2="207.31" y2="83.42"/>
      <line class="cls-3" x1="200.38" y1="83.94" x2="206.52" y2="85.9"/>
      <line class="cls-3" x1="196.34" y1="96.58" x2="205.99" y2="99.65"/>
      <line class="cls-3" x1="198.75" y1="89.02" x2="204.89" y2="90.98"/>
      <line class="cls-3" x1="197.92" y1="91.62" x2="204.06" y2="93.58"/>
      <line class="cls-3" x1="197.13" y1="94.1" x2="203.27" y2="96.06"/>
      <line class="cls-3" x1="193.1" y1="106.74" x2="202.75" y2="109.81"/>
      <line class="cls-3" x1="195.5" y1="99.18" x2="201.64" y2="101.14"/>
      <line class="cls-3" x1="194.68" y1="101.78" x2="200.81" y2="103.74"/>
      <line class="cls-3" x1="193.89" y1="104.26" x2="200.02" y2="106.22"/>
      <line class="cls-3" x1="189.85" y1="116.9" x2="199.5" y2="119.97"/>
      <line class="cls-3" x1="192.26" y1="109.34" x2="198.4" y2="111.29"/>
      <line class="cls-3" x1="191.43" y1="111.94" x2="197.57" y2="113.9"/>
      <line class="cls-3" x1="190.64" y1="114.42" x2="196.78" y2="116.37"/>
      <line class="cls-3" x1="186.6" y1="127.05" x2="196.25" y2="130.13"/>
      <line class="cls-3" x1="189.01" y1="119.5" x2="195.15" y2="121.45"/>
      <line class="cls-3" x1="188.18" y1="122.1" x2="194.32" y2="124.05"/>
      <line class="cls-3" x1="187.39" y1="124.57" x2="193.53" y2="126.53"/>
    </g>
  </g>
</svg>